<svg width="200" height="80" viewBox="0 0 200 80" fill="none" xmlns="http://www.w3.org/2000/svg">
<path d="M57.2854 50.9442H59.9742C61.5648 50.9442 62.2464 51.8404 62.2464 52.9766C62.2907 53.3422 62.2117 53.712 62.0219 54.0276C61.8321 54.3432 61.5424 54.5864 61.1987 54.7186C61.7126 54.8306 62.171 55.1194 62.494 55.5346C62.8169 55.9498 62.984 56.4652 62.966 56.9909C62.9877 57.3319 62.9335 57.6736 62.8072 57.9911C62.681 58.3087 62.4859 58.5943 62.2359 58.8273C61.986 59.0604 61.6874 59.2351 61.3618 59.3388C61.0362 59.4425 60.6916 59.4728 60.3529 59.4272H57.2854V50.9442ZM60.1509 54.5545C60.3708 54.588 60.5956 54.5686 60.8065 54.4979C61.0174 54.4273 61.2085 54.3074 61.3639 54.1483C61.5194 53.9892 61.6347 53.7953 61.7003 53.5828C61.766 53.3703 61.7801 53.1451 61.7415 52.9261C61.7415 52.0298 61.2744 51.3355 59.9237 51.3355H57.7903V54.504L60.1509 54.5545ZM60.2898 58.9728C61.8804 58.9728 62.4484 58.1144 62.4484 56.9909C62.4484 55.8674 61.8046 55.009 60.2772 55.009H57.7524V58.9728H60.2898Z" fill="white"/>
<path d="M72.017 56.7763L68.8106 50.9442H69.3913L72.0927 55.8548C72.1766 56.0204 72.2442 56.1937 72.2947 56.3723C72.3588 56.1949 72.4347 56.022 72.5219 55.8548L75.2108 50.9442H75.7536L72.5472 56.7889V59.4272H72.017V56.7763Z" fill="white"/>
<path d="M95.8251 59.4273H95.2066L93.4393 57.0035C93.0914 57.0821 92.7355 57.1202 92.3789 57.1171H91.1165V59.4273H90.599V50.9442H92.3158C92.7489 50.8866 93.1893 50.9247 93.6061 51.0555C94.0229 51.1864 94.406 51.407 94.7285 51.7018C95.0509 51.9965 95.3049 52.3584 95.4725 52.7618C95.6402 53.1652 95.7175 53.6005 95.6989 54.037C95.7299 54.6377 95.5693 55.2328 95.2404 55.7365C94.9114 56.2401 94.431 56.6263 93.8685 56.8394L95.8251 59.4273ZM92.2653 56.7132C94.4113 56.7132 95.1687 55.4508 95.1687 54.0875C95.1919 53.7111 95.1306 53.3343 94.9891 52.9847C94.8476 52.6352 94.6296 52.3217 94.3511 52.0675C94.0726 51.8132 93.7407 51.6245 93.3798 51.5153C93.0188 51.4062 92.638 51.3792 92.2653 51.4365H91.1165V56.7132H92.2653Z" fill="white"/>
<path d="M102.983 50.9442H103.5V59.4272H102.983V50.9442Z" fill="white"/>
<path d="M113.422 54.8322L110.898 50.9442H111.478L113.574 54.1884C113.628 54.2859 113.674 54.3871 113.713 54.4914C113.713 54.4914 113.814 54.2894 113.877 54.1884L115.947 50.982H116.503L113.978 54.8575L116.957 59.4651H116.376L113.852 55.5392C113.795 55.4371 113.744 55.3317 113.7 55.2236C113.637 55.3028 113.569 55.3786 113.498 55.4508L110.973 59.3767H110.418L113.422 54.8322Z" fill="white"/>
<path d="M122.675 55.1858C122.675 54.3269 122.93 53.4873 123.407 52.7732C123.885 52.0591 124.563 51.5025 125.356 51.1738C126.15 50.8451 127.023 50.7591 127.865 50.9267C128.708 51.0942 129.481 51.5078 130.089 52.1151C130.696 52.7224 131.11 53.4962 131.277 54.3386C131.445 55.1809 131.359 56.0541 131.03 56.8476C130.701 57.6411 130.145 58.3193 129.431 58.7964C128.716 59.2736 127.877 59.5283 127.018 59.5283C126.443 59.5439 125.872 59.4423 125.338 59.2296C124.804 59.0169 124.319 58.6976 123.913 58.2912C123.506 57.8848 123.187 57.3998 122.974 56.8659C122.761 56.332 122.66 55.7603 122.675 55.1858ZM130.843 55.1858C130.826 54.4408 130.589 53.7174 130.162 53.1064C129.736 52.4953 129.138 52.0237 128.445 51.7506C127.752 51.4774 126.993 51.4149 126.264 51.5709C125.536 51.7268 124.869 52.0943 124.348 52.6273C123.828 53.1603 123.476 53.8351 123.336 54.5672C123.197 55.2993 123.277 56.0562 123.566 56.7431C123.855 57.4299 124.341 58.0162 124.961 58.4286C125.582 58.8409 126.311 59.061 127.056 59.0612C127.561 59.0613 128.061 58.9605 128.526 58.7647C128.991 58.5689 129.413 58.282 129.766 57.9209C130.118 57.5599 130.395 57.1319 130.58 56.6622C130.766 56.1924 130.855 55.6905 130.843 55.1858Z" fill="white"/>
<path d="M137.395 57.8241L137.837 57.6221C138.048 58.074 138.389 58.4531 138.816 58.7114C139.243 58.9698 139.737 59.0959 140.235 59.0738C140.482 59.1036 140.733 59.082 140.971 59.0102C141.21 58.9385 141.431 58.8183 141.62 58.657C141.81 58.4958 141.964 58.2971 142.074 58.0733C142.183 57.8496 142.245 57.6057 142.255 57.357C142.255 56.3723 141.712 55.8295 140.525 55.2867L139.73 54.9206C138.544 54.3778 137.963 53.8097 137.963 52.7367C137.965 52.4725 138.022 52.2116 138.131 51.9704C138.239 51.7292 138.395 51.5129 138.591 51.3352C138.786 51.1574 139.017 51.0219 139.267 50.9373C139.517 50.8526 139.782 50.8206 140.046 50.8432C140.489 50.8338 140.926 50.9466 141.309 51.1693C141.692 51.392 142.006 51.716 142.217 52.1056L141.813 52.358C141.645 52.0371 141.39 51.7699 141.078 51.5869C140.765 51.4039 140.408 51.3124 140.046 51.3229C139.844 51.2971 139.64 51.3155 139.446 51.3767C139.252 51.438 139.074 51.5406 138.924 51.6775C138.774 51.8144 138.655 51.9823 138.577 52.1695C138.498 52.3568 138.461 52.559 138.468 52.762C138.468 53.6078 138.884 54.0243 139.932 54.504L140.715 54.8701C142.091 55.5013 142.76 56.2209 142.76 57.3949C142.754 57.7091 142.681 58.0184 142.547 58.3027C142.413 58.587 142.221 58.8399 141.983 59.0448C141.745 59.2497 141.466 59.4021 141.165 59.4919C140.863 59.5817 140.547 59.607 140.235 59.5661C139.641 59.597 139.052 59.4471 138.544 59.1361C138.037 58.825 137.637 58.3676 137.395 57.8241Z" fill="white"/>
<path d="M183.471 21.8341C183.718 21.8156 183.964 21.7733 184.203 21.7079C184.444 21.6492 184.68 21.5732 184.91 21.4806C185.089 21.4331 185.27 21.3952 185.453 21.367L186.816 20.9883C187.258 20.8747 187.712 20.7232 188.18 20.5591C188.647 20.395 189.354 20.1552 190.06 19.8774C190.667 19.6715 191.172 19.2428 191.474 18.6782C191.539 18.5669 191.572 18.4406 191.572 18.3121C191.572 18.1836 191.539 18.0573 191.474 17.946C191.372 17.7438 191.202 17.5833 190.995 17.4916C190.781 17.4213 190.551 17.4213 190.338 17.4916C190.219 17.52 190.11 17.5793 190.021 17.6635C189.933 17.7478 189.868 17.8539 189.833 17.9713C189.717 18.1847 189.542 18.36 189.328 18.4762C189.039 18.66 188.739 18.8286 188.432 18.9812C188.116 19.158 187.787 19.31 187.447 19.4356L186.589 19.8017C186.298 19.9234 185.992 20.0082 185.68 20.0542C185.162 20.1532 184.652 20.2882 184.153 20.4581C183.699 20.5818 183.271 20.7871 182.89 21.0641C182.825 21.1033 182.771 21.1588 182.733 21.2252C182.696 21.2916 182.676 21.3665 182.676 21.4428C182.676 21.519 182.696 21.594 182.733 21.6603C182.771 21.7267 182.825 21.7822 182.89 21.8215C183.076 21.8952 183.282 21.8997 183.471 21.8341ZM149.804 26.7699C150.296 26.7737 150.776 26.6138 151.167 26.3155C151.545 26.0445 151.856 25.6903 152.076 25.2803C152.172 25.123 152.234 24.9479 152.26 24.7657C152.286 24.5834 152.275 24.3978 152.227 24.22C152.126 23.8918 151.824 23.7403 151.319 23.7403C150.835 23.7439 150.366 23.9033 149.98 24.1947C149.596 24.4556 149.277 24.8011 149.046 25.2046C148.949 25.3563 148.884 25.5272 148.858 25.7057C148.832 25.8843 148.845 26.0664 148.895 26.2397C148.996 26.568 149.299 26.7447 149.804 26.7699ZM89.9804 33.5362C89.9758 33.4658 89.9568 33.3971 89.9247 33.3343C89.8926 33.2715 89.848 33.216 89.7936 33.171C89.7392 33.1261 89.6762 33.0928 89.6085 33.0731C89.5407 33.0534 89.4697 33.0477 89.3997 33.0565C88.9022 33.0889 88.4225 33.2545 88.0111 33.5362C87.579 33.8169 87.1064 34.0297 86.6099 34.1674C86.2296 34.3081 85.8286 34.3849 85.4233 34.3946C85.0147 34.4237 84.6056 34.3453 84.2366 34.1674C84.1417 34.1408 84.052 34.0981 83.9715 34.0411L83.7696 33.8644C84.1495 33.3525 84.4752 32.8025 84.7416 32.2233C84.9992 31.6737 85.1369 31.0756 85.1456 30.4687C85.1456 29.6986 84.8804 29.2063 84.3629 29.2063C84.0882 29.1701 83.809 29.2155 83.5599 29.3367C83.3108 29.4579 83.1028 29.6496 82.9617 29.888C82.508 30.4213 82.2187 31.0746 82.1285 31.7689C82.0078 32.45 82.0867 33.1514 82.3557 33.7887C82.2735 33.9364 82.1716 34.0723 82.0528 34.1926C81.9754 34.2682 81.9076 34.353 81.8508 34.4451C81.3773 34.9872 80.829 35.459 80.2223 35.8463C79.6173 36.2266 78.9171 36.4279 78.2026 36.427C77.8617 36.2881 77.7102 35.9221 77.7481 35.3414C77.8021 34.6833 77.9378 34.0345 78.1521 33.41C78.354 32.7409 78.5813 32.0845 78.8337 31.4659L79.3639 30.2036L80.3864 27.9313C82.094 26.5219 83.7089 25.0039 85.2213 23.3868C86.673 21.7457 88.1626 20.1047 89.6522 18.3626C89.8163 18.1228 90.0183 17.8703 90.2329 17.5799C90.4368 17.2913 90.6182 16.9874 90.7757 16.671C90.943 16.3672 91.0622 16.0393 91.1292 15.699C91.2017 15.3798 91.1474 15.0448 90.9777 14.7649C90.907 14.6267 90.8072 14.5054 90.6852 14.4095C90.5631 14.3137 90.4217 14.2454 90.2707 14.2094C89.971 14.1464 89.6615 14.1464 89.3618 14.2094C88.5585 14.4162 87.8339 14.8553 87.279 15.4718C86.673 16.1535 86.1302 16.7342 85.6631 17.4032C84.5043 18.854 83.4376 20.376 82.4693 21.9603L80.8788 24.5734C80.3486 25.4318 79.8563 26.3029 79.3766 27.1739C77.9593 28.3615 76.4712 29.4617 74.9204 30.4687C73.452 31.4278 71.9115 32.2719 70.3128 32.9934C70.1805 32.9831 70.0482 33.014 69.9341 33.0817C69.5806 33.2711 69.2777 33.41 69.0504 33.511C67.7522 34.1795 66.4112 34.7614 65.0361 35.253L63.7738 35.6317C63.5528 35.7101 63.3185 35.7438 63.0845 35.7308C62.8504 35.7178 62.6213 35.6584 62.4104 35.556C62.269 35.1471 62.269 34.7025 62.4104 34.2936C62.5272 33.9062 62.6881 33.5334 62.8901 33.1827C63.0629 32.875 63.2569 32.5797 63.4708 32.2991C63.681 32.0422 63.8281 31.7395 63.9 31.4154C63.9489 31.2416 63.9382 31.0564 63.8696 30.8893C63.801 30.7223 63.6783 30.5831 63.5213 30.4939C63.3855 30.3954 63.222 30.3423 63.0542 30.3423C62.8864 30.3423 62.7229 30.3954 62.5871 30.4939C61.8205 31.0776 61.0242 31.6211 60.2013 32.1224C58.6491 33.0577 57.0431 33.9007 55.3917 34.6471C54.8867 34.8491 54.2934 35.1141 53.6244 35.4171C53.0195 35.7023 52.3615 35.8571 51.693 35.8716C51.7038 35.1882 51.9389 34.5274 52.362 33.9906C52.8218 33.4072 53.3149 32.8508 53.839 32.3243C54.0262 32.1314 54.2289 31.9541 54.4449 31.7941C54.7126 31.5708 54.9656 31.3305 55.2023 31.0746C55.4203 30.8537 55.5996 30.5976 55.7325 30.3172C55.7942 30.1926 55.8197 30.0533 55.8064 29.915C55.793 29.7767 55.7412 29.6449 55.6568 29.5345C55.5667 29.3896 55.431 29.2788 55.271 29.2194C55.1111 29.16 54.936 29.1554 54.7731 29.2063C54.3311 29.3033 53.9057 29.465 53.5108 29.686C53.0689 29.9258 52.6397 30.1909 52.2484 30.4687C51.9504 30.683 51.6383 30.877 51.3143 31.0493L48.7895 32.1981C47.9684 32.5693 47.1253 32.8898 46.2648 33.1575C46.1457 33.1829 46.0309 33.2254 45.924 33.2837C45.6186 33.4596 45.292 33.5953 44.9519 33.6877C44.0052 34.0916 43.0458 34.4703 42.0738 34.7986C41.0962 35.1395 40.0967 35.4137 39.082 35.6191C38.9329 35.6574 38.7809 35.6827 38.6275 35.6948L37.8701 35.7706C37.5266 35.8008 37.1851 35.8514 36.8476 35.9221C36.7646 35.4587 36.7646 34.9842 36.8476 34.5208C36.9262 34.0158 37.0444 33.5178 37.201 33.0313C37.3548 32.5318 37.5403 32.0427 37.7565 31.5669C37.9711 31.0998 38.1604 30.6706 38.3372 30.3046C40.2504 28.9012 42.0525 27.3523 43.7275 25.6717C45.3935 24.0115 46.9099 22.2078 48.2593 20.2814C48.4361 20.0415 48.6507 19.7638 48.9158 19.4356C49.1934 19.1155 49.4506 18.7782 49.6858 18.4257C49.9024 18.0936 50.0803 17.7379 50.216 17.3653C50.3353 17.0133 50.3353 16.6318 50.216 16.2797C50.1727 16.031 50.0332 15.8094 49.8276 15.6629C49.622 15.5163 49.367 15.4568 49.1177 15.497C48.641 15.5637 48.1796 15.7132 47.7544 15.9389C46.961 16.3525 46.2507 16.9089 45.6589 17.5799C45.0656 18.2742 44.5101 18.9559 44.0052 19.6376C43.5002 20.3193 42.8059 21.2408 42.2379 22.0361L40.5084 24.3967L38.8421 26.9214C38.265 27.8041 37.7382 28.7187 37.2642 29.6607C36.2921 30.3424 35.3075 30.9231 34.3355 31.5417C33.3492 32.1159 32.3338 32.6383 31.2932 33.107L31.1417 33.1954C30.9252 33.2878 30.7144 33.3932 30.5105 33.511L29.69 33.9906L29.0588 34.3694L26.4331 35.6317L23.82 36.8941C22.9616 37.3107 22.0906 37.7146 21.2069 38.0807L18.5812 39.1537C17.6363 39.5201 16.6711 39.832 15.6904 40.0879C14.7353 40.3376 13.7591 40.4982 12.7743 40.5676C11.8361 40.6408 10.8922 40.5511 9.98452 40.3025C9.58099 40.2057 9.20502 40.0177 8.88551 39.7529C8.566 39.4881 8.31147 39.1536 8.14148 38.775C7.79956 37.9796 7.65242 37.114 7.71227 36.2503C7.74396 35.3232 7.88809 34.4033 8.14148 33.511C8.34936 32.7363 8.61088 31.977 8.92414 31.2387C9.59864 29.4288 10.444 27.6873 11.4489 26.0378C12.4386 24.4101 13.5351 22.8498 14.731 21.367C15.2612 20.6854 15.8671 19.9911 16.5236 19.2589C17.1864 18.5492 17.8903 17.879 18.6317 17.2517C19.3561 16.6221 20.1428 16.068 20.9797 15.598C21.7972 15.1534 22.6787 14.8383 23.5928 14.6639C24.3372 14.4947 25.1135 14.5296 25.8398 14.7649C26.471 15.0047 26.8118 15.6107 26.8875 16.5953C26.9523 17.5092 26.8843 18.4276 26.6856 19.322C26.4869 20.2291 26.1951 21.1133 25.8145 21.9603C25.5116 22.743 25.1707 23.5383 24.7794 24.3714C24.4004 25.2086 23.9791 26.026 23.517 26.8204C23.0396 27.6205 22.5037 28.3842 21.9138 29.1053C21.3685 29.786 20.741 30.3966 20.0455 30.9231C19.9294 30.9939 19.832 31.0917 19.7617 31.2082C19.6913 31.3246 19.6501 31.4564 19.6416 31.5922C19.6404 31.8152 19.7213 32.0308 19.8688 32.1981C20.0304 32.3697 20.2428 32.4847 20.4748 32.5263C20.7487 32.5708 21.0292 32.5075 21.2574 32.3496C21.8398 31.6775 22.3674 30.9598 22.8354 30.2036L24.2492 27.9061C25.1329 26.3534 25.966 24.7249 26.7739 23.0333C27.5721 21.3826 28.1331 19.6274 28.4403 17.8198C28.5603 17.0714 28.5603 16.3086 28.4403 15.5602C28.3388 14.8035 27.9612 14.111 27.3799 13.6161C26.7736 13.0719 25.9854 12.7746 25.1707 12.783C24.3747 12.7509 23.5794 12.8621 22.8227 13.1112C22.0083 13.3112 21.2292 13.6348 20.5126 14.0706C19.808 14.5126 19.1371 15.0063 18.5055 15.5475C17.8472 16.1071 17.2273 16.7101 16.6498 17.3527L15.034 19.221C12.5336 22.0985 10.4124 25.2845 8.72216 28.7013C8.35608 29.4083 7.98999 30.1657 7.63653 30.9736C7.28409 31.798 6.97647 32.6408 6.71501 33.4983C6.46212 34.3472 6.28885 35.2178 6.19744 36.0988C6.1183 36.9421 6.16082 37.7923 6.32367 38.6235C6.49385 39.4845 6.93643 40.2678 7.58604 40.8579C8.15956 41.3972 8.85123 41.7949 9.60581 42.0193C10.4033 42.2628 11.2336 42.3821 12.0674 42.3727C12.9158 42.3831 13.7626 42.2984 14.5921 42.1203C16.3388 41.7552 18.0344 41.1787 19.6416 40.4034C21.2448 39.6208 22.8227 38.8507 24.3754 38.0681C25.3601 37.601 26.3069 37.1213 27.241 36.629C28.1752 36.1367 29.1093 35.657 30.0561 35.1899C30.4265 35.0019 30.8158 34.8538 31.2174 34.7481C31.6188 34.6588 31.9865 34.4574 32.2778 34.1674C32.3466 34.145 32.4101 34.1089 32.4643 34.0611C32.5186 34.0134 32.5625 33.955 32.5934 33.8897C33.8588 33.2392 35.0892 32.5229 36.2795 31.7436C35.9216 32.5299 35.6179 33.3397 35.3706 34.1674C35.2625 34.5592 35.1948 34.961 35.1686 35.3666C35.107 35.7496 35.1285 36.1414 35.2318 36.5154C35.3417 36.8633 35.5636 37.1651 35.8629 37.3738C36.2371 37.6136 36.691 37.6953 37.1253 37.601C37.7022 37.5698 38.2698 37.4418 38.8042 37.2223C39.3471 37.0077 39.9025 36.7931 40.4706 36.5911L46.3532 34.4072L46.6309 34.2684C47.1201 34.1552 47.5945 33.9858 48.0447 33.7634C48.6507 33.4983 49.6479 33.107 51.0365 32.602L52.2989 32.0466C51.8949 32.5894 51.5036 33.1449 51.1375 33.7129C50.7955 34.2244 50.5078 34.7702 50.2791 35.3414C50.0891 35.7615 49.9943 36.2184 50.0014 36.6795C50.0027 36.8621 50.0658 37.0388 50.1804 37.181C50.295 37.3231 50.4544 37.4222 50.6326 37.4621C51.0841 37.6356 51.5789 37.6621 52.0464 37.5379C52.6158 37.4119 53.1702 37.2257 53.7001 36.9824C54.2556 36.73 54.7857 36.4649 55.2907 36.1745L56.5531 35.4424C57.4367 35.0637 58.2825 34.6597 59.0778 34.18C59.8731 33.7003 60.7567 33.3216 61.6025 32.9176L60.8451 34.7354C60.6718 35.2162 60.624 35.7333 60.7062 36.2377C60.7506 36.4981 60.8755 36.7382 61.0635 36.9239C61.2515 37.1096 61.493 37.2316 61.754 37.2728C62.6024 37.4736 63.4942 37.3755 64.2787 36.9951C65.1245 36.6037 65.9072 36.2629 66.6141 35.9599L69.9593 34.382L70.1739 34.281C70.2229 34.3054 70.277 34.3182 70.3317 34.3182C70.3865 34.3182 70.4405 34.3054 70.4895 34.281L70.9692 34.0538L74.1125 32.337L76.1828 30.961C76.9023 30.4939 77.584 30.0268 78.2657 29.5471C78.0637 29.989 77.8743 30.4308 77.685 30.8095C77.4956 31.1882 77.3189 31.6805 77.1548 32.0719C76.8518 32.7788 76.5489 33.5614 76.2585 34.4198C75.9697 35.2367 75.9697 36.1278 76.2585 36.9446C76.3474 37.215 76.5007 37.4597 76.7052 37.6576C76.9098 37.8555 77.1594 38.0007 77.4325 38.0807C77.9759 38.2443 78.5554 38.2443 79.0988 38.0807C79.9115 37.7906 80.6552 37.3349 81.2827 36.7426C81.9183 36.1519 82.509 35.5148 83.05 34.8364C83.6182 35.3114 84.3424 35.5588 85.0824 35.5307C85.837 35.5084 86.5848 35.381 87.3042 35.152C88.1013 34.8945 88.8814 34.5867 89.6396 34.2305C89.7717 34.1768 89.8795 34.0764 89.9424 33.9483C90.0053 33.8203 90.0188 33.6736 89.9804 33.5362ZM83.0879 23.1722C83.5171 22.5032 83.9715 21.8215 84.4891 21.1524C85.0067 20.4834 85.4485 19.8901 85.9787 19.2715C86.5089 18.6529 87.0517 18.0091 87.6198 17.5042C87.8218 17.3401 88.0616 17.1255 88.3393 16.873C88.5839 16.6327 88.8549 16.421 89.1472 16.2418C88.872 17.0509 88.467 17.8099 87.948 18.4888C87.4262 19.1873 86.896 19.8564 86.3574 20.496C85.6126 21.3039 84.8678 22.1118 84.0978 22.9197C83.3277 23.7276 82.5703 24.5103 81.8003 25.2551L83.0879 23.1722ZM40.6599 26.2397C41.0008 25.7222 41.3542 25.192 41.7329 24.6492C42.402 23.7403 43.0837 22.844 43.7527 21.9856C44.433 21.124 45.1622 20.3021 45.9366 19.524C46.2017 19.2589 46.5425 18.918 46.9717 18.5141C47.3696 18.1388 47.8204 17.8241 48.3098 17.5799C48.2102 17.8487 48.0921 18.1102 47.9564 18.3626C47.8417 18.5662 47.7405 18.777 47.6534 18.9938C47.1508 19.833 46.5764 20.6271 45.9366 21.367C44.6057 23.099 43.1366 24.7201 41.5436 26.2145L40.5968 27.0477C40.2812 27.338 39.9656 27.6031 39.6627 27.8429C40.0035 27.3001 40.2812 26.7699 40.6599 26.2397ZM193.633 33.2585C193.524 33.1941 193.403 33.152 193.277 33.1346C193.151 33.1173 193.023 33.1251 192.901 33.1575C192.585 33.3216 192.257 33.4857 191.904 33.6372L190.868 34.1169C190.123 34.4547 189.36 34.7539 188.583 35.0132C187.804 35.2635 187.011 35.4742 186.21 35.6443C185.579 35.7487 184.943 35.8162 184.304 35.8463C183.632 35.8735 182.959 35.7968 182.31 35.6191C181.691 35.4466 181.118 35.1407 180.631 34.7228C180.138 34.2732 179.817 33.6663 179.722 33.006H179.924C180.665 33.0735 181.412 33.0137 182.133 32.8293C182.834 32.6483 183.506 32.3678 184.127 31.9961L184.91 31.5164C185.259 31.303 185.585 31.0534 185.882 30.7716C186.142 30.5311 186.348 30.2387 186.488 29.9132C186.546 29.7686 186.56 29.6101 186.529 29.4575C186.497 29.3049 186.422 29.1649 186.311 29.0548C186.137 28.8324 185.918 28.6498 185.667 28.5192C185.417 28.3885 185.141 28.3129 184.86 28.2974C184.315 28.2212 183.763 28.2212 183.218 28.2974C182.325 28.4712 181.469 28.8047 180.694 29.282C179.916 29.7441 179.272 30.4011 178.825 31.1882C178.134 31.4589 177.463 31.7795 176.818 32.1476C176.212 32.4884 175.556 32.804 175.051 33.0944C174.971 33.0976 174.894 33.1192 174.824 33.1575C174.521 33.3216 174.205 33.4731 173.89 33.6119C173.554 33.7543 173.202 33.856 172.842 33.9149C172.429 34.0659 172.007 34.1924 171.579 34.2936C171.122 34.4199 170.659 34.5211 170.191 34.5966C169.729 34.6857 169.259 34.7196 168.79 34.6976C168.355 34.6864 167.927 34.5921 167.527 34.4198C167.976 34.0639 168.398 33.6757 168.79 33.2585C169.157 32.873 169.483 32.4499 169.762 31.9961C169.968 31.6051 170.088 31.1748 170.115 30.7338C170.115 30.3046 169.913 30.0142 169.396 29.8753C169.184 29.8114 168.96 29.7963 168.741 29.8313C168.523 29.8663 168.315 29.9504 168.133 30.0773C167.773 30.3159 167.435 30.5863 167.123 30.8852C166.67 31.3263 166.324 31.8664 166.113 32.4632C165.912 32.9941 165.843 33.5659 165.911 34.1295L165.444 34.483C165.318 34.584 164.977 34.8112 164.435 35.152C163.91 35.472 163.361 35.7506 162.793 35.9852C162.362 36.1802 161.89 36.2669 161.417 36.2377C161.064 36.2377 161.014 35.8211 161.241 35.152L161.544 34.4325C161.646 34.2058 161.764 33.9865 161.897 33.776C162.175 33.3342 162.453 32.9176 162.743 32.5137C163.035 32.0976 163.365 31.7089 163.728 31.3523C163.886 31.2303 164.03 31.0906 164.157 30.9357C164.302 30.7824 164.429 30.6129 164.535 30.4308C164.585 30.3575 164.619 30.2751 164.637 30.1884C164.654 30.1017 164.654 30.0125 164.636 29.9258C164.636 29.7617 164.447 29.585 164.182 29.4209C164.048 29.3433 163.895 29.3025 163.74 29.3025C163.585 29.3025 163.433 29.3433 163.298 29.4209L162.415 29.8501C161.152 30.3929 159.89 30.9484 158.628 31.529C157.365 32.1097 156.179 32.6273 154.929 33.1449H154.828C154.328 33.2836 153.841 33.4696 153.376 33.7003C152.859 33.9528 152.354 34.2179 151.887 34.483C151.578 34.6715 151.257 34.8402 150.927 34.9879C150.347 35.2025 149.665 35.4045 149.021 35.6065C148.409 35.798 147.766 35.8666 147.128 35.8084C146.973 35.5791 146.877 35.3159 146.846 35.0411C146.815 34.7664 146.851 34.4883 146.951 34.2305C147.103 33.6778 147.297 33.1375 147.531 32.6147C147.646 32.2899 147.808 31.9837 148.011 31.7058C148.215 31.4309 148.361 31.1173 148.44 30.7842C148.541 30.2541 148.44 29.9385 148.087 29.8501C147.672 29.755 147.24 29.755 146.825 29.8501C146.328 29.9571 145.842 30.1092 145.373 30.3046L144.439 30.7085L139.541 33.0565C139.337 33.116 139.142 33.2008 138.96 33.309C138.817 33.4003 138.665 33.4764 138.506 33.5362L137.243 34.1674C136.834 34.3851 136.412 34.579 135.981 34.7481C135.027 35.1383 134.054 35.4796 133.065 35.7706C132.345 35.9726 131.891 35.9726 131.727 35.7706C131.589 35.6519 131.482 35.5013 131.416 35.3318C131.35 35.1623 131.327 34.9792 131.348 34.7986C131.368 34.3675 131.454 33.9419 131.6 33.5362C131.75 33.1007 131.936 32.6784 132.156 32.2738C132.371 31.8446 132.572 31.5038 132.737 31.2387C132.88 31.0653 132.974 30.8569 133.009 30.635C133.045 30.4131 133.02 30.1857 132.939 29.9763C132.774 29.6355 132.383 29.5724 131.777 29.7744C131.114 30.1794 130.417 30.5257 129.694 30.8095C128.998 31.1225 128.234 31.257 127.473 31.2008C127.168 31.2078 126.868 31.1337 126.602 30.9862C127.028 30.7312 127.394 30.3866 127.675 29.9763C127.8 29.8138 127.884 29.6231 127.919 29.4207C127.955 29.2183 127.94 29.0104 127.877 28.815C127.814 28.6195 127.693 28.4475 127.531 28.3214C127.369 28.1953 127.173 28.121 126.968 28.108C126.63 28.0806 126.292 28.1406 125.984 28.2821C125.677 28.4236 125.411 28.6419 125.213 28.916C124.789 29.4226 124.581 30.0752 124.632 30.7338C123.824 31.2135 123.067 31.63 122.373 31.9961L120.277 33.107C120.181 33.1504 120.101 33.222 120.047 33.3122C119.993 33.4024 119.967 33.507 119.974 33.6119C119.97 33.7232 119.996 33.8336 120.049 33.9313C120.103 34.0291 120.181 34.1106 120.277 34.1674C120.387 34.2349 120.516 34.2641 120.643 34.2503C120.771 34.2366 120.891 34.1808 120.984 34.0916C121.205 33.9394 121.442 33.8124 121.691 33.7129C121.931 33.5867 122.246 33.3973 122.625 33.1575C123.004 32.9176 123.395 32.703 123.774 32.5011L125.188 31.7436C125.338 31.9382 125.528 32.0977 125.746 32.211C125.964 32.3244 126.205 32.3889 126.45 32.4001C127.034 32.4571 127.621 32.4571 128.205 32.4001C128.776 32.3578 129.342 32.2649 129.896 32.1224C130.426 31.9835 130.767 31.8951 130.944 31.8699L130.527 33.5362C130.469 33.8139 130.393 34.0916 130.3 34.3694C130.224 34.6597 130.149 34.95 130.098 35.2404C130.06 35.5253 130.06 35.8139 130.098 36.0988C130.134 36.3803 130.238 36.6489 130.401 36.8815C130.538 37.0892 130.726 37.2584 130.947 37.3733C131.168 37.4882 131.415 37.5448 131.664 37.5379C132.232 37.5332 132.796 37.4307 133.33 37.2349C133.89 37.036 134.434 36.7955 134.958 36.5154L136.347 35.758L138.48 34.7859L138.935 34.6345C139.136 34.5687 139.33 34.4842 139.515 34.382C139.641 34.3182 139.759 34.2421 139.869 34.1548H139.995C140.601 33.8265 141.207 33.5236 141.813 33.2459C142.523 32.9092 143.252 32.6141 143.997 32.3622C144.742 32.1097 145.499 31.832 146.282 31.529C146.067 32.135 145.878 32.7914 145.688 33.5236C145.516 34.1877 145.423 34.8699 145.411 35.556C145.391 36.0978 145.532 36.6334 145.815 37.0961C145.989 37.3083 146.222 37.4645 146.485 37.5453C146.747 37.6261 147.028 37.6279 147.292 37.5505C148.105 37.4184 148.895 37.1719 149.64 36.8183C150.41 36.4649 151.154 36.0988 151.899 35.7327C152.195 35.5902 152.499 35.4638 152.808 35.354C153.288 35.1646 153.742 34.9627 154.209 34.7354C154.489 34.6061 154.755 34.4496 155.005 34.2684H155.093C155.32 34.2684 155.547 34.1421 155.749 34.0664C156.217 33.8013 156.696 33.5488 157.163 33.309C157.66 33.0629 158.17 32.8438 158.691 32.6525L160.079 32.1476L161.468 31.6427C160.674 32.919 160.062 34.2999 159.65 35.7453C159.517 35.9985 159.448 36.28 159.448 36.5659C159.448 36.8517 159.517 37.1333 159.65 37.3864C159.788 37.5493 159.958 37.6825 160.149 37.778C160.34 37.8735 160.548 37.9292 160.761 37.9418C161.277 37.9925 161.798 37.9322 162.288 37.7651C162.768 37.6264 163.227 37.4225 163.652 37.1592C164.119 36.8941 164.611 36.5911 165.091 36.2755C165.585 35.9609 166.061 35.6196 166.517 35.253C166.968 35.6385 167.54 35.853 168.133 35.8589C168.82 35.9218 169.511 35.8964 170.191 35.7832C170.873 35.657 171.567 35.5181 172.236 35.354L173.019 35.2025C173.347 35.1268 173.662 35.0384 173.991 34.9374C174.304 34.8374 174.608 34.7107 174.899 34.5587C175.015 34.4975 175.125 34.4257 175.228 34.3441C175.356 34.3316 175.479 34.2835 175.581 34.2052C175.79 34.0627 176.01 33.9362 176.238 33.8265L177.172 33.2459C177.526 33.0301 177.892 32.8362 178.27 32.6652C178.206 32.9136 178.206 33.1741 178.27 33.4226C178.27 33.7003 178.371 33.9654 178.447 34.2305C178.62 34.9176 178.968 35.5482 179.457 36.0609C179.914 36.5193 180.454 36.8876 181.047 37.1466C181.661 37.404 182.314 37.5576 182.979 37.601C183.667 37.6539 184.359 37.6114 185.036 37.4748C186.599 37.0558 188.137 36.55 189.644 35.9599L192.169 34.8364C192.408 34.7354 192.674 34.6345 192.989 34.5335C193.285 34.4413 193.537 34.2436 193.696 33.978C193.911 33.6119 193.885 33.3973 193.633 33.2585ZM180.681 30.7338C180.985 30.417 181.339 30.1526 181.729 29.9511C182.123 29.7433 182.55 29.6065 182.991 29.5471C183.46 29.4854 183.936 29.5373 184.38 29.6986C183.799 30.2823 183.125 30.7645 182.385 31.1251C181.648 31.4852 180.845 31.6914 180.025 31.731C180.183 31.3661 180.405 31.0326 180.681 30.7464V30.7338ZM122.246 25.6843C122.865 25.0104 123.387 24.2542 123.799 23.4373C124.19 22.6527 124.397 21.7893 124.405 20.9126C124.423 20.0098 124.205 19.1179 123.774 18.3247C123.356 17.5946 122.783 16.9654 122.095 16.4817C121.396 15.9812 120.626 15.5897 119.81 15.3203C118.959 15.0604 118.083 14.8911 117.197 14.8154C116.126 14.7268 115.049 14.7268 113.978 14.8154C112.898 14.9171 111.823 15.073 110.759 15.2824C111.694 14.3727 112.713 13.5528 113.801 12.8335C114.799 12.149 115.987 11.7957 117.197 11.8236C117.374 11.8253 117.547 11.7731 117.694 11.6739C117.84 11.5747 117.953 11.4331 118.017 11.2681C118.106 11.1151 118.14 10.9363 118.112 10.7615C118.084 10.5868 117.998 10.4269 117.866 10.3087C117.754 10.1977 117.619 10.1129 117.471 10.0605C117.322 10.008 117.164 9.98937 117.008 10.0058C116.612 10.0083 116.219 10.0766 115.846 10.2077C115.442 10.3446 115.049 10.5134 114.672 10.7127L113.814 11.1671C113.062 11.6322 112.345 12.1511 111.668 12.7198C110.979 13.276 110.325 13.8747 109.711 14.5124L108.55 15.8379C108.07 15.9389 107.59 16.0525 107.098 16.1913C106.611 16.3179 106.13 16.4696 105.659 16.6458C103.841 17.2139 102.023 17.9082 100.218 18.5898C98.4423 19.3103 96.7494 20.2203 95.1687 21.3039C95.0146 21.3875 94.8919 21.5188 94.8191 21.6782C94.7462 21.8376 94.7271 22.0164 94.7648 22.1876C94.7938 22.3379 94.8593 22.4787 94.9556 22.5977C95.0518 22.7168 95.1758 22.8103 95.3167 22.8702C95.4576 22.93 95.611 22.9543 95.7635 22.941C95.916 22.9276 96.0629 22.8769 96.1912 22.7935C96.4654 22.6373 96.7271 22.46 96.9739 22.2633C97.2264 22.0613 97.4662 21.8467 97.7061 21.6321C97.9065 21.454 98.1219 21.2935 98.3499 21.1524C100.515 19.8364 102.829 18.7813 105.242 18.0091C105.581 17.8725 105.926 17.7545 106.277 17.6557C106.635 17.5522 106.997 17.468 107.363 17.4032C106.492 18.451 105.659 19.5114 104.838 20.597C104.018 21.6826 103.311 22.7556 102.566 23.8917C101.417 25.6086 100.319 27.338 99.2461 29.0801L96.0397 34.3189L94.9162 36.0988C94.1083 36.1998 93.2752 36.2755 92.3915 36.326C91.5505 36.3714 90.7077 36.3714 89.8668 36.326C89.7139 36.3191 89.5618 36.3514 89.4249 36.4199C89.288 36.4884 89.171 36.5908 89.0849 36.7174C88.9989 36.8439 88.9466 36.9904 88.9332 37.1429C88.9198 37.2954 88.9457 37.4487 89.0084 37.5884C89.0548 37.7638 89.1608 37.9177 89.3082 38.0236C89.4556 38.1296 89.6352 38.181 89.8163 38.1691C90.1782 38.1691 90.5316 38.1438 90.8767 38.0933L92.3536 37.9166C92.8586 37.8661 93.3635 37.7904 93.8685 37.6894C93.1868 38.775 92.5177 39.8354 91.8361 40.8831C91.1544 41.9309 90.5737 42.9913 89.9678 44.0769C89.9102 44.2291 89.8929 44.3935 89.9174 44.5543C89.9419 44.7151 90.0074 44.8669 90.1076 44.995C90.2078 45.1232 90.3394 45.2233 90.4896 45.2858C90.6397 45.3483 90.8035 45.3711 90.965 45.3519C91.1645 45.3205 91.3519 45.236 91.5074 45.1072C91.6629 44.9783 91.7808 44.8099 91.8487 44.6197C92.003 44.2614 92.1844 43.9153 92.3915 43.5846L95.1687 38.3584L95.7241 37.399L96.6457 37.197C100.434 36.5151 104.161 35.5315 107.792 34.2557C111.415 33.0093 114.868 31.3129 118.068 29.2063C118.75 28.7645 119.457 28.2469 120.201 27.6662C120.937 27.0818 121.621 26.4356 122.246 25.7348V25.6843ZM117.942 27.4895C117.285 27.9944 116.679 28.411 116.2 28.7518C114.045 30.2349 111.734 31.4753 109.307 32.4506C106.885 33.4214 104.396 34.2145 101.859 34.8238C100.096 35.2952 98.3035 35.6536 96.4942 35.8968L98.8927 31.7941C99.6838 30.4392 100.504 29.0885 101.354 27.742C102.44 26.0504 103.526 24.3967 104.649 22.7935C105.773 21.1903 106.959 19.6376 108.247 18.1101L109.257 16.8478C110.001 16.6756 110.756 16.5491 111.516 16.4691C112.236 16.4817 112.993 16.4059 113.763 16.3176C114.989 16.2474 116.219 16.2896 117.437 16.4438C118.646 16.5847 119.803 17.018 120.807 17.7062C121.541 18.1465 122.109 18.8165 122.423 19.6123C122.664 20.2853 122.699 21.0148 122.524 21.7079C122.328 22.4773 121.985 23.2017 121.514 23.8413C120.999 24.5495 120.429 25.2163 119.81 25.8358C119.227 26.446 118.603 27.0154 117.942 27.54V27.4895Z" fill="white"/>
<path d="M85.8398 65.2846H87.645C87.8191 65.2707 87.9942 65.2929 88.1592 65.3501C88.3242 65.4073 88.4755 65.498 88.6037 65.6167C88.7318 65.7353 88.8339 65.8792 88.9036 66.0394C88.9732 66.1995 89.0089 66.3724 89.0084 66.547C89.0116 66.7431 88.9485 66.9345 88.8294 67.0903C88.7102 67.2461 88.542 67.3571 88.3519 67.4054C88.6239 67.4457 88.8713 67.5855 89.0462 67.7977C89.2211 68.0099 89.3111 68.2794 89.2987 68.5541C89.3014 68.7548 89.2618 68.9538 89.1824 69.1381C89.103 69.3224 88.9855 69.4879 88.8378 69.6237C88.6901 69.7595 88.5153 69.8626 88.325 69.9263C88.1347 69.99 87.9331 70.0128 87.7334 69.9932H85.8398V65.2846ZM87.544 67.0014C87.847 67.0014 88.0616 66.8373 88.0616 66.5722C88.0658 66.5109 88.0564 66.4494 88.034 66.3922C88.0116 66.335 87.9769 66.2834 87.9323 66.2412C87.8876 66.1989 87.8342 66.1671 87.7758 66.148C87.7174 66.1288 87.6555 66.1228 87.5945 66.1304H86.7992V67.0014H87.544ZM87.6829 69.1096C87.7689 69.1151 87.8551 69.1023 87.9357 69.0719C88.0163 69.0415 88.0895 68.9943 88.1505 68.9334C88.2114 68.8724 88.2586 68.7992 88.289 68.7186C88.3194 68.638 88.3323 68.5518 88.3267 68.4658C88.3311 68.3757 88.3157 68.2857 88.2816 68.2022C88.2475 68.1186 88.1956 68.0436 88.1294 67.9822C88.0633 67.9209 87.9845 67.8747 87.8987 67.8471C87.8128 67.8194 87.7219 67.8108 87.6324 67.822H86.7992V69.0843L87.6829 69.1096Z" fill="white"/>
<path d="M92.0379 65.2846H95.1181V66.1304H93.0478V67.6073H94.9161V68.4279H93.0478V69.1095H95.2696V69.9427H92.0379V65.2846Z" fill="white"/>
<path d="M98.2237 65.2846H99.1831V69.0717H101.291V69.9048H98.2237V65.2846Z" fill="white"/>
<path d="M104.131 65.2846H107.186V66.1304H105.091V67.6073H106.959V68.4279H105.091V69.1095H107.313V69.9427H104.131V65.2846Z" fill="white"/>
<path d="M111.567 66.9509L112.829 65.2846H113.928L112.362 67.3927L114.117 69.9174H112.956L111.693 68.087L111.239 68.6298V69.8922H110.279V65.2846H111.239V66.9004C111.239 67.1276 111.239 67.4432 111.239 67.6831C111.321 67.4278 111.431 67.1822 111.567 66.9509Z" fill="white"/>
</svg>
