<svg width="376" height="120" viewBox="0 0 376 120" fill="none" xmlns="http://www.w3.org/2000/svg">
<path d="M102.253 81.8882H107.631C110.812 81.8882 112.175 83.6807 112.175 85.953C112.264 86.6842 112.106 87.4239 111.726 88.0551C111.347 88.6862 110.767 89.1726 110.08 89.4371C111.108 89.6611 112.024 90.2386 112.67 91.069C113.316 91.8995 113.65 92.9302 113.614 93.9816C113.658 94.6637 113.549 95.347 113.297 95.9821C113.044 96.6172 112.654 97.1884 112.154 97.6545C111.654 98.1206 111.057 98.47 110.406 98.6775C109.755 98.8849 109.066 98.9454 108.388 98.8543H102.253V81.8882ZM107.984 89.1089C108.424 89.1758 108.874 89.137 109.295 88.9957C109.717 88.8544 110.099 88.6147 110.41 88.2965C110.721 87.9782 110.952 87.5905 111.083 87.1654C111.214 86.7404 111.243 86.2901 111.165 85.852C111.165 84.0594 110.231 82.6709 107.53 82.6709H103.263V89.0079L107.984 89.1089ZM108.262 97.9454C111.443 97.9454 112.579 96.2286 112.579 93.9816C112.579 91.7346 111.292 90.0178 108.237 90.0178H103.187V97.9454H108.262Z" fill="white"/>
<path d="M131.717 93.5524L125.304 81.8882H126.465L131.868 91.7094C132.036 92.0406 132.171 92.3872 132.272 92.7445C132.4 92.3897 132.552 92.0439 132.727 91.7094L138.104 81.8882H139.19L132.777 93.5777V98.8543H131.717V93.5524Z" fill="white"/>
<path d="M179.331 98.8542H178.094L174.56 94.0067C173.864 94.1639 173.152 94.2401 172.439 94.234H169.914V98.8542H168.879V81.8881H172.313C173.179 81.773 174.06 81.849 174.893 82.1108C175.727 82.3725 176.493 82.8137 177.138 83.4032C177.783 83.9928 178.291 84.7164 178.626 85.5233C178.961 86.3301 179.116 87.2007 179.079 88.0736C179.141 89.2752 178.82 90.4653 178.162 91.4726C177.504 92.4799 176.543 93.2523 175.418 93.6785L179.331 98.8542ZM172.212 93.426C176.504 93.426 178.018 90.9013 178.018 88.1746C178.065 87.4218 177.942 86.6682 177.659 85.9691C177.376 85.27 176.94 84.6431 176.383 84.1346C175.826 83.6261 175.162 83.2488 174.441 83.0304C173.719 82.812 172.957 82.7581 172.212 82.8727H169.914V93.426H172.212Z" fill="white"/>
<path d="M193.648 81.8882H194.683V98.8543H193.648V81.8882Z" fill="white"/>
<path d="M214.525 89.6643L209.476 81.8882H210.637L214.828 88.3767C214.936 88.5715 215.028 88.7741 215.106 88.9827C215.106 88.9827 215.308 88.5787 215.434 88.3767L219.575 81.9639H220.686L215.636 89.7148L221.594 98.9301H220.433L215.384 91.0782C215.27 90.8741 215.169 90.6633 215.081 90.447C214.954 90.6054 214.819 90.7571 214.677 90.9014L209.627 98.7533H208.516L214.525 89.6643Z" fill="white"/>
<path d="M233.033 90.3716C233.033 88.6538 233.542 86.9747 234.497 85.5464C235.451 84.1182 236.807 83.005 238.394 82.3476C239.981 81.6903 241.728 81.5183 243.412 81.8534C245.097 82.1885 246.645 83.0157 247.859 84.2303C249.074 85.4449 249.901 86.9925 250.236 88.6772C250.571 90.3619 250.399 92.1082 249.742 93.6952C249.084 95.2822 247.971 96.6386 246.543 97.5929C245.115 98.5473 243.436 99.0566 241.718 99.0566C240.569 99.0879 239.425 98.8847 238.358 98.4593C237.29 98.0339 236.32 97.3953 235.507 96.5825C234.694 95.7697 234.056 94.7998 233.63 93.7319C233.205 92.664 233.002 91.5206 233.033 90.3716ZM249.368 90.3716C249.333 88.8816 248.859 87.4349 248.006 86.2128C247.153 84.9907 245.958 84.0475 244.572 83.5012C243.185 82.9549 241.668 82.8299 240.211 83.1419C238.753 83.4538 237.42 84.1887 236.379 85.2547C235.337 86.3206 234.633 87.6702 234.355 89.1345C234.076 90.5987 234.236 92.1124 234.815 93.4862C235.393 94.8599 236.363 96.0325 237.605 96.8572C238.846 97.682 240.303 98.1221 241.794 98.1225C242.803 98.1228 243.803 97.9211 244.734 97.5295C245.664 97.1379 246.507 96.5641 247.213 95.8419C247.919 95.1198 248.473 94.2638 248.843 93.3244C249.213 92.385 249.391 91.381 249.368 90.3716Z" fill="white"/>
<path d="M262.472 95.6487L263.356 95.2447C263.779 96.1485 264.46 96.9067 265.314 97.4234C266.168 97.9402 267.155 98.1924 268.152 98.1481C268.647 98.2078 269.148 98.1645 269.625 98.021C270.102 97.8776 270.544 97.6371 270.923 97.3146C271.302 96.9922 271.611 96.5947 271.829 96.1472C272.048 95.6998 272.171 95.212 272.192 94.7145C272.192 92.7452 271.106 91.6596 268.733 90.574L267.143 89.8418C264.769 88.7562 263.608 87.62 263.608 85.474C263.613 84.9455 263.727 84.4237 263.943 83.9413C264.159 83.4589 264.473 83.0264 264.864 82.6709C265.255 82.3153 265.715 82.0444 266.216 81.8751C266.717 81.7057 267.247 81.6417 267.774 81.6869C268.66 81.6681 269.534 81.8938 270.3 82.3392C271.066 82.7846 271.694 83.4325 272.116 84.2117L271.308 84.7166C270.973 84.0748 270.463 83.5404 269.838 83.1744C269.213 82.8083 268.498 82.6253 267.774 82.6463C267.371 82.5948 266.961 82.6316 266.574 82.754C266.187 82.8765 265.83 83.0817 265.53 83.3555C265.23 83.6293 264.993 83.9651 264.835 84.3396C264.678 84.7142 264.604 85.1185 264.618 85.5245C264.618 87.2161 265.451 88.0492 267.547 89.0086L269.112 89.7408C271.864 91.0032 273.202 92.4423 273.202 94.7903C273.19 95.4187 273.045 96.0374 272.777 96.606C272.509 97.1746 272.124 97.6803 271.648 98.0902C271.171 98.5 270.614 98.8047 270.011 98.9843C269.409 99.164 268.776 99.2146 268.152 99.1328C266.964 99.1946 265.785 98.8947 264.771 98.2727C263.757 97.6506 262.955 96.7357 262.472 95.6487Z" fill="white"/>
<path d="M354.624 23.6682C355.119 23.6311 355.61 23.5466 356.089 23.4157C356.57 23.2984 357.043 23.1465 357.503 22.9613C357.86 22.8662 358.222 22.7903 358.588 22.7341L361.315 21.9766C362.198 21.7494 363.107 21.4464 364.042 21.1182C364.976 20.79 366.389 20.3103 367.803 19.7549C369.016 19.3429 370.027 18.4855 370.631 17.3564C370.76 17.1338 370.827 16.8813 370.827 16.6242C370.827 16.3672 370.76 16.1147 370.631 15.8921C370.426 15.4876 370.087 15.1666 369.672 14.9831C369.245 14.8425 368.785 14.8425 368.359 14.9831C368.121 15.0399 367.902 15.1586 367.725 15.3271C367.548 15.4955 367.418 15.7079 367.349 15.9425C367.117 16.3694 366.766 16.72 366.339 16.9524C365.76 17.32 365.161 17.6571 364.546 17.9623C363.915 18.3161 363.256 18.62 362.577 18.8712L360.86 19.6034C360.278 19.8468 359.667 20.0164 359.043 20.1083C358.007 20.3064 356.986 20.5764 355.988 20.9163C355.079 21.1636 354.224 21.5742 353.463 22.1281C353.332 22.2067 353.224 22.3177 353.149 22.4504C353.074 22.5831 353.034 22.733 353.034 22.8855C353.034 23.038 353.074 23.1879 353.149 23.3206C353.224 23.4534 353.332 23.5644 353.463 23.643C353.835 23.7904 354.247 23.7994 354.624 23.6682ZM287.29 33.5399C288.274 33.5473 289.233 33.2276 290.017 32.631C290.773 32.0889 291.395 31.3807 291.834 30.5607C292.025 30.246 292.151 29.8958 292.203 29.5313C292.255 29.1668 292.233 28.7956 292.137 28.4399C291.935 27.7835 291.329 27.4805 290.32 27.4805C289.353 27.4878 288.414 27.8065 287.643 28.3894C286.875 28.9112 286.235 29.6021 285.775 30.4092C285.58 30.7126 285.451 31.0544 285.399 31.4115C285.347 31.7686 285.372 32.1328 285.472 32.4795C285.674 33.1359 286.28 33.4894 287.29 33.5399ZM167.643 47.0724C167.634 46.9316 167.596 46.7942 167.532 46.6686C167.468 46.5431 167.378 46.4319 167.27 46.3421C167.161 46.2522 167.035 46.1856 166.899 46.1462C166.764 46.1068 166.622 46.0955 166.482 46.113C165.487 46.1777 164.528 46.5091 163.705 47.0724C162.84 47.6337 161.895 48.0594 160.902 48.3348C160.142 48.6162 159.34 48.7697 158.529 48.7892C157.712 48.8473 156.894 48.6907 156.156 48.3348C155.966 48.2817 155.786 48.1963 155.626 48.0823L155.222 47.7288C155.981 46.705 156.633 45.605 157.166 44.4467C157.681 43.3474 157.956 42.1512 157.974 40.9373C157.974 39.3972 157.443 38.4126 156.408 38.4126C155.859 38.3403 155.3 38.431 154.802 38.6733C154.304 38.9157 153.888 39.2991 153.606 39.7759C152.699 40.8425 152.12 42.1492 151.939 43.5378C151.698 44.8999 151.856 46.3029 152.394 47.5773C152.229 47.8728 152.026 48.1446 151.788 48.3853C151.633 48.5364 151.498 48.706 151.384 48.8902C150.437 49.9743 149.34 50.918 148.127 51.6926C146.917 52.4531 145.517 52.8557 144.088 52.854C143.406 52.5763 143.103 51.8441 143.179 50.6827C143.287 49.3666 143.558 48.069 143.987 46.8199C144.391 45.4818 144.845 44.169 145.35 42.9318L146.41 40.4071L148.455 35.8626C151.87 33.0437 155.1 30.0078 158.125 26.7736C161.028 23.4915 164.008 20.2093 166.987 16.7252C167.315 16.2455 167.719 15.7406 168.148 15.1599C168.556 14.5826 168.919 13.9749 169.234 13.3421C169.568 12.7345 169.807 12.0787 169.941 11.398C170.086 10.7596 169.977 10.0897 169.638 9.52975C169.496 9.25334 169.297 9.01088 169.053 8.81909C168.809 8.62731 168.526 8.49076 168.224 8.41887C167.625 8.29287 167.006 8.29287 166.406 8.41887C164.799 8.83232 163.35 9.71054 162.24 10.9436C161.028 12.3069 159.943 13.4683 159.009 14.8064C156.691 17.708 154.558 20.752 152.621 23.9207L149.44 29.1469C148.38 30.8637 147.395 32.6057 146.436 34.3478C143.601 36.7229 140.625 38.9235 137.523 40.9373C134.586 42.8556 131.505 44.5438 128.308 45.9868C128.043 45.9662 127.779 46.0279 127.551 46.1635C126.844 46.5422 126.238 46.8199 125.783 47.0219C123.187 48.3589 120.505 49.5228 117.755 50.506L115.23 51.2634C114.788 51.4203 114.32 51.4877 113.851 51.4617C113.383 51.4357 112.925 51.3168 112.503 51.1119C112.22 50.2941 112.22 49.405 112.503 48.5872C112.737 47.8123 113.059 47.0668 113.463 46.3655C113.808 45.75 114.196 45.1595 114.624 44.5982C115.045 44.0844 115.339 43.479 115.482 42.8309C115.58 42.4832 115.559 42.1128 115.422 41.7787C115.284 41.4446 115.039 41.1662 114.725 40.9878C114.453 40.7907 114.126 40.6846 113.791 40.6846C113.455 40.6846 113.128 40.7907 112.857 40.9878C111.323 42.1551 109.731 43.2422 108.085 44.2447C104.981 46.1154 101.769 47.8015 98.4658 49.2942C97.4559 49.6981 96.2693 50.2283 94.9312 50.8342C93.7215 51.4045 92.4054 51.7142 91.0684 51.7431C91.0901 50.3764 91.5602 49.0547 92.4065 47.9813C93.326 46.8144 94.3123 45.7016 95.3604 44.6487C95.7349 44.2629 96.1402 43.9082 96.5723 43.5883C97.1076 43.1416 97.6136 42.6609 98.0871 42.1492C98.5231 41.7073 98.8816 41.1952 99.1475 40.6343C99.2708 40.3853 99.3219 40.1067 99.2951 39.8301C99.2684 39.5534 99.1648 39.2898 98.996 39.069C98.8158 38.7793 98.5444 38.5576 98.2245 38.4388C97.9046 38.32 97.5544 38.3108 97.2287 38.4126C96.3446 38.6067 95.4939 38.9299 94.704 39.372C93.8203 39.8517 92.9619 40.3819 92.1792 40.9373C91.5832 41.3659 90.9591 41.7539 90.311 42.0987L85.2615 44.3962C83.6193 45.1387 81.9329 45.7795 80.2121 46.315C79.9738 46.3658 79.7442 46.4509 79.5304 46.5675C78.9197 46.9191 78.2663 47.1906 77.5863 47.3754C75.6928 48.1833 73.774 48.9407 71.83 49.5971C69.8749 50.2791 67.8758 50.8274 65.8464 51.2382C65.5483 51.3147 65.2442 51.3654 64.9375 51.3897L63.4226 51.5412C62.7356 51.6017 62.0527 51.7029 61.3776 51.8441C61.2117 50.9173 61.2117 49.9685 61.3776 49.0417C61.5349 48.0316 61.7712 47.0355 62.0845 46.0625C62.392 45.0636 62.7631 44.0854 63.1954 43.1338C63.6246 42.1997 64.0033 41.3413 64.3568 40.6091C68.1833 37.8024 71.7875 34.7046 75.1374 31.3434C78.4694 28.023 81.5023 24.4155 84.2011 20.5628C84.5546 20.0831 84.9838 19.5277 85.514 18.8712C86.0692 18.2309 86.5836 17.5563 87.0541 16.8514C87.4872 16.1873 87.843 15.4757 88.1144 14.7307C88.353 14.0266 88.353 13.2635 88.1144 12.5594C88.0279 12.062 87.7488 11.6187 87.3376 11.3257C86.9265 11.0327 86.4164 10.9135 85.9179 10.9941C84.9645 11.1274 84.0416 11.4265 83.1912 11.8777C81.6045 12.7051 80.1837 13.8177 79.0002 15.1599C77.8136 16.5485 76.7027 17.9118 75.6928 19.2752C74.6829 20.6385 73.2943 22.4816 72.1582 24.0722L68.6993 28.7934L65.3667 33.8428C64.2124 35.6082 63.1588 37.4373 62.2108 39.3215C60.2667 40.6848 58.2974 41.8462 56.3534 43.0833C54.3809 44.2317 52.3499 45.2767 50.2688 46.214L49.9659 46.3907C49.5328 46.5757 49.1113 46.7864 48.7035 47.0219L47.0624 47.9813L45.8001 48.7387L40.5486 51.2634L35.3225 53.7882C33.6056 54.6213 31.8636 55.4292 30.0963 56.1614L24.8449 58.3074C22.9549 59.0402 21.0246 59.664 19.0632 60.1757C17.1531 60.6752 15.2007 60.9964 13.2311 61.1351C11.3546 61.2817 9.46683 61.1023 7.65148 60.6049C6.84441 60.4114 6.09247 60.0354 5.45345 59.5058C4.81443 58.9762 4.30537 58.3071 3.96538 57.55C3.28156 55.9591 2.98727 54.228 3.10698 52.5006C3.17036 50.6463 3.45861 48.8067 3.96538 47.0219C4.38115 45.4726 4.90419 43.9541 5.53071 42.4774C6.87971 38.8576 8.5705 35.3746 10.5802 32.0755C12.5597 28.8203 14.7526 25.6996 17.1444 22.7341C18.2048 21.3707 19.4167 19.9821 20.7296 18.5178C22.0553 17.0984 23.4631 15.758 24.9458 14.5035C26.3946 13.2442 27.9681 12.136 29.6418 11.1961C31.2768 10.3069 33.0398 9.67662 34.868 9.32777C36.3569 8.98944 37.9095 9.05922 39.362 9.52975C40.6244 10.0094 41.306 11.2213 41.4575 13.1906C41.5871 15.0184 41.451 16.8553 41.0536 18.644C40.6563 20.4582 40.0725 22.2265 39.3115 23.9207C38.7056 25.486 38.0239 27.0766 37.2412 28.7429C36.4832 30.4173 35.6406 32.052 34.7165 33.6409C33.7616 35.2409 32.6899 36.7683 31.5101 38.2106C30.4194 39.5721 29.1644 40.7932 27.7735 41.8462C27.5412 41.9878 27.3464 42.1834 27.2058 42.4164C27.0651 42.6493 26.9827 42.9127 26.9656 43.1843C26.9633 43.6303 27.125 44.0617 27.4201 44.3962C27.7431 44.7393 28.168 44.9695 28.6319 45.0526C29.1798 45.1417 29.7408 45.015 30.1973 44.6992C31.362 43.3549 32.4173 41.9197 33.3532 40.4071L36.1809 35.8121C37.9482 32.7067 39.6145 29.4498 41.2303 26.0667C42.8267 22.7653 43.9487 19.2549 44.5629 15.6396C44.8031 14.1427 44.8031 12.6172 44.5629 11.1203C44.3601 9.60697 43.6048 8.2221 42.4422 7.23225C41.2297 6.14375 39.6532 5.54921 38.0239 5.56593C36.4319 5.5018 34.8413 5.72414 33.3279 6.22236C31.699 6.62245 30.1408 7.26954 28.7077 8.14115C27.2984 9.02522 25.9566 10.0126 24.6934 11.0951C23.3769 12.2141 22.1369 13.4203 20.982 14.7054L17.7504 18.442C12.7497 24.197 8.50727 30.5691 5.12676 37.4027C4.39459 38.8165 3.66242 40.3314 2.9555 41.9472C2.25062 43.5959 1.63537 45.2815 1.11245 46.9967C0.606678 48.6944 0.260136 50.4356 0.0773097 52.1976C-0.0809621 53.8841 0.00406513 55.5847 0.329782 57.247C0.670136 58.9689 1.5553 60.5356 2.85451 61.7158C4.00155 62.7944 5.38489 63.5898 6.89406 64.0385C8.48908 64.5257 10.1496 64.7641 11.8173 64.7455C13.514 64.7662 15.2077 64.5968 16.8667 64.2405C20.36 63.5104 23.7513 62.3574 26.9656 60.8069C30.172 59.2416 33.3279 57.7015 36.4333 56.1362C38.4026 55.202 40.2962 54.2426 42.1645 53.258C44.0328 52.2733 45.901 51.3139 47.7946 50.3798C48.5354 50.0039 49.314 49.7077 50.1173 49.4961C50.92 49.3176 51.6554 48.9148 52.2381 48.3348C52.3756 48.2901 52.5026 48.2178 52.6111 48.1223C52.7196 48.0267 52.8075 47.91 52.8693 47.7793C55.4 46.4784 57.8607 45.0458 60.2415 43.4873C59.5257 45.0597 58.9183 46.6794 58.4237 48.3348C58.2074 49.1183 58.072 49.922 58.0197 50.7332C57.8964 51.4993 57.9394 52.2829 58.146 53.0307C58.3658 53.7266 58.8097 54.3302 59.4083 54.7476C60.1566 55.2272 61.0645 55.3906 61.933 55.202C63.0869 55.1397 64.222 54.8836 65.2909 54.4446C66.3766 54.0154 67.4874 53.5862 68.6236 53.1822L80.3888 48.8145L80.9442 48.5367C81.9226 48.3104 82.8715 47.9715 83.7719 47.5268C84.9838 46.9967 86.9783 46.214 89.7555 45.2041L92.2802 44.0932C91.4723 45.1788 90.6897 46.2897 89.9575 47.4259C89.2734 48.4488 88.698 49.5403 88.2407 50.6827C87.8607 51.523 87.671 52.4369 87.6852 53.359C87.6878 53.7241 87.814 54.0777 88.0432 54.3619C88.2725 54.6462 88.5913 54.8444 88.9476 54.9243C89.8507 55.2712 90.8403 55.3242 91.7753 55.0758C92.914 54.8239 94.0228 54.4515 95.0827 53.9649C96.1936 53.4599 97.2539 52.9298 98.2638 52.3491L100.789 50.8847C102.556 50.1273 104.247 49.3194 105.838 48.36C107.429 47.4006 109.196 46.6432 110.887 45.8353L109.373 49.4709C109.026 50.4324 108.93 51.4665 109.095 52.4753C109.184 52.9963 109.433 53.4763 109.809 53.8477C110.185 54.2191 110.668 54.4632 111.19 54.5456C112.887 54.9472 114.671 54.751 116.24 53.9901C117.931 53.2075 119.497 52.5258 120.911 51.9199L127.601 48.764L128.03 48.562C128.128 48.6109 128.236 48.6363 128.346 48.6363C128.455 48.6363 128.563 48.6109 128.661 48.562L129.621 48.1075L135.907 44.6739L140.048 41.922C141.487 40.9878 142.85 40.0537 144.214 39.0943C143.81 39.9779 143.431 40.8616 143.052 41.619C142.674 42.3764 142.32 43.361 141.992 44.1437C141.386 45.5576 140.78 47.1229 140.199 48.8397C139.622 50.4733 139.622 52.2555 140.199 53.8891C140.377 54.4299 140.684 54.9193 141.093 55.3152C141.502 55.7111 142.001 56.0015 142.547 56.1614C143.634 56.4885 144.793 56.4885 145.88 56.1614C147.506 55.5811 148.993 54.6699 150.248 53.4852C151.519 52.3039 152.701 51.0296 153.783 49.6729C154.919 50.6229 156.367 51.1176 157.847 51.0615C159.357 51.0168 160.852 50.7619 162.291 50.304C163.885 49.789 165.445 49.1734 166.962 48.461C167.226 48.3537 167.442 48.1528 167.567 47.8967C167.693 47.6406 167.72 47.3472 167.643 47.0724ZM153.858 26.3444C154.717 25.0063 155.626 23.643 156.661 22.3048C157.696 20.9667 158.579 19.7801 159.64 18.543C160.7 17.3059 161.786 16.0183 162.922 15.0084C163.326 14.6802 163.806 14.251 164.361 13.746C164.85 13.2655 165.392 12.842 165.977 12.4837C165.427 14.1019 164.616 15.6197 163.578 16.9777C162.535 18.3747 161.475 19.7128 160.397 20.992C158.908 22.6078 157.418 24.2236 155.878 25.8395C154.338 27.4553 152.823 29.0206 151.283 30.5102L153.858 26.3444ZM69.0023 32.4795C69.6839 31.4443 70.3909 30.384 71.1483 29.2983C72.4864 27.4805 73.8497 25.688 75.1879 23.9712C76.5485 22.248 78.0068 20.6042 79.5556 19.048C80.0858 18.5178 80.7675 17.8361 81.6259 17.0282C82.4216 16.2776 83.3233 15.6481 84.3021 15.1599C84.1029 15.6974 83.8667 16.2204 83.5952 16.7252C83.3659 17.1324 83.1635 17.554 82.9892 17.9876C81.9841 19.666 80.8353 21.2541 79.5556 22.7341C76.8939 26.1979 73.9556 29.4402 70.7696 32.429L68.876 34.0953C68.2449 34.676 67.6137 35.2062 67.0077 35.6859C67.6894 34.6003 68.2449 33.5399 69.0023 32.4795ZM374.948 46.517C374.73 46.3881 374.488 46.304 374.236 46.2693C373.985 46.2346 373.729 46.2502 373.484 46.315C372.853 46.6432 372.196 46.9714 371.489 47.2744L369.419 48.2338C367.928 48.9094 366.402 49.5077 364.849 50.0263C363.29 50.527 361.705 50.9483 360.103 51.2887C358.841 51.4975 357.568 51.6324 356.291 51.6926C354.945 51.747 353.6 51.5937 352.302 51.2382C351.065 50.8932 349.919 50.2813 348.944 49.4456C347.958 48.5463 347.316 47.3326 347.126 46.012H347.53C349.012 46.1469 350.506 46.0274 351.948 45.6585C353.351 45.2967 354.694 44.7355 355.937 43.9922L357.503 43.0328C358.201 42.6061 358.853 42.1068 359.447 41.5433C359.966 41.0623 360.379 40.4774 360.658 39.8264C360.774 39.5371 360.802 39.2202 360.74 38.9149C360.677 38.6097 360.526 38.3297 360.305 38.1096C359.957 37.6648 359.518 37.2996 359.017 37.0383C358.516 36.7771 357.965 36.6259 357.401 36.5948C356.313 36.4424 355.208 36.4424 354.119 36.5948C352.332 36.9423 350.621 37.6094 349.07 38.5641C347.514 39.4882 346.226 40.8022 345.333 42.3764C343.95 42.9177 342.609 43.559 341.319 44.2952C340.107 44.9769 338.794 45.6081 337.784 46.1887C337.625 46.1953 337.47 46.2385 337.33 46.315C336.724 46.6432 336.093 46.9462 335.462 47.2239C334.79 47.5086 334.086 47.712 333.366 47.8298C332.54 48.1319 331.697 48.3848 330.841 48.5872C329.927 48.8399 329 49.0422 328.064 49.1932C327.141 49.3715 326.201 49.4393 325.262 49.3951C324.392 49.3727 323.535 49.1842 322.737 48.8397C323.634 48.1278 324.478 47.3515 325.262 46.517C325.997 45.7461 326.648 44.8998 327.206 43.9922C327.618 43.2103 327.859 42.3497 327.913 41.4675C327.913 40.6091 327.509 40.0284 326.474 39.7507C326.05 39.6227 325.602 39.5926 325.165 39.6626C324.728 39.7326 324.312 39.9008 323.949 40.1546C323.229 40.6319 322.553 41.1726 321.929 41.7705C321.021 42.6526 320.33 43.7327 319.909 44.9264C319.507 45.9882 319.368 47.1318 319.505 48.259L318.571 48.9659C318.319 49.1679 317.637 49.6224 316.551 50.304C315.502 50.9441 314.405 51.5012 313.269 51.9704C312.407 52.3605 311.462 52.5338 310.517 52.4753C309.81 52.4753 309.709 51.6421 310.164 50.304L310.77 48.8649C310.975 48.4116 311.211 47.973 311.477 47.5521C312.032 46.6684 312.588 45.8353 313.168 45.0274C313.753 44.1952 314.412 43.4178 315.138 42.7046C315.455 42.4607 315.743 42.1811 315.996 41.8715C316.286 41.5647 316.54 41.2259 316.753 40.8616C316.852 40.7149 316.921 40.5502 316.956 40.3768C316.99 40.2035 316.99 40.025 316.955 39.8517C316.955 39.5235 316.577 39.17 316.047 38.8418C315.778 38.6867 315.473 38.605 315.163 38.605C314.853 38.605 314.548 38.6867 314.279 38.8418L312.512 39.7002C309.987 40.7858 307.462 41.8967 304.938 43.0581C302.413 44.2195 300.04 45.2546 297.54 46.2897H297.338C296.337 46.5672 295.365 46.9391 294.435 47.4006C293.4 47.9056 292.39 48.4357 291.456 48.9659C290.838 49.343 290.197 49.6803 289.537 49.9758C288.376 50.405 287.012 50.809 285.725 51.2129C284.501 51.596 283.214 51.7333 281.938 51.6169C281.629 51.1582 281.436 50.6317 281.374 50.0823C281.312 49.5328 281.385 48.9766 281.584 48.461C281.888 47.3555 282.276 46.2751 282.745 45.2293C282.975 44.5798 283.298 43.9673 283.705 43.4115C284.113 42.8618 284.405 42.2347 284.563 41.5685C284.765 40.5081 284.563 39.8769 283.856 39.7002C283.025 39.5099 282.162 39.5099 281.332 39.7002C280.338 39.9141 279.366 40.2184 278.428 40.6091L276.56 41.417L266.764 46.113C266.357 46.2319 265.967 46.4016 265.603 46.6179C265.316 46.8005 265.012 46.9528 264.694 47.0724L262.169 48.3348C261.35 48.7702 260.507 49.158 259.644 49.4961C257.736 50.2766 255.79 50.9591 253.812 51.5412C252.373 51.9451 251.464 51.9451 251.136 51.5412C250.86 51.3039 250.647 51.0025 250.515 50.6636C250.383 50.3246 250.336 49.9584 250.378 49.5971C250.419 48.735 250.589 47.8839 250.883 47.0724C251.183 46.2013 251.554 45.3568 251.994 44.5477C252.423 43.6893 252.827 43.0076 253.156 42.4774C253.442 42.1306 253.63 41.7138 253.701 41.27C253.772 40.8261 253.723 40.3714 253.56 39.9527C253.231 39.271 252.449 39.1448 251.237 39.5487C249.911 40.3587 248.517 41.0515 247.071 41.619C245.678 42.2451 244.151 42.5141 242.628 42.4017C242.019 42.4155 241.418 42.2674 240.885 41.9725C241.739 41.4624 242.471 40.7733 243.032 39.9527C243.283 39.6276 243.451 39.2461 243.521 38.8413C243.592 38.4366 243.562 38.0207 243.435 37.6299C243.309 37.239 243.069 36.895 242.744 36.6428C242.42 36.3906 242.028 36.2419 241.618 36.2161C240.943 36.1612 240.266 36.2811 239.651 36.5641C239.037 36.8471 238.505 37.2838 238.108 37.8319C237.26 38.8452 236.844 40.1504 236.947 41.4675C235.331 42.4269 233.816 43.2601 232.428 43.9922L228.237 46.214C228.045 46.3008 227.884 46.4439 227.776 46.6244C227.668 46.8048 227.617 47.0139 227.631 47.2239C227.622 47.4464 227.674 47.6671 227.781 47.8626C227.888 48.0582 228.045 48.2213 228.237 48.3348C228.456 48.4697 228.714 48.5281 228.969 48.5007C229.225 48.4733 229.465 48.3616 229.65 48.1833C230.092 47.8789 230.566 47.6248 231.064 47.4259C231.544 47.1734 232.175 46.7947 232.933 46.315C233.69 45.8353 234.473 45.4061 235.23 45.0021L238.058 43.4873C238.358 43.8764 238.739 44.1953 239.175 44.4221C239.611 44.6488 240.092 44.7778 240.583 44.8001C241.75 44.9143 242.925 44.9143 244.092 44.8001C245.234 44.7156 246.366 44.5298 247.475 44.2447C248.535 43.967 249.217 43.7903 249.571 43.7398L248.737 47.0724C248.62 47.6278 248.468 48.1833 248.283 48.7387C248.131 49.3194 247.98 49.9001 247.879 50.4808C247.803 51.0505 247.803 51.6278 247.879 52.1976C247.951 52.7607 248.159 53.2978 248.485 53.7629C248.759 54.1783 249.135 54.5169 249.577 54.7466C250.019 54.9763 250.512 55.0896 251.01 55.0758C252.147 55.0663 253.274 54.8613 254.342 54.4698C255.462 54.072 256.551 53.591 257.599 53.0307L260.376 51.5159L264.643 49.5719L265.552 49.2689C265.954 49.1374 266.343 48.9683 266.713 48.764C266.964 48.6364 267.2 48.4842 267.42 48.3095H267.673C268.885 47.6531 270.097 47.0471 271.308 46.4917C272.729 45.8184 274.187 45.2283 275.676 44.7244C277.166 44.2195 278.681 43.664 280.246 43.0581C279.817 44.2699 279.438 45.5828 279.059 47.0471C278.714 48.3754 278.528 49.7398 278.504 51.1119C278.465 52.1957 278.746 53.2668 279.312 54.1921C279.661 54.6165 280.127 54.929 280.652 55.0906C281.177 55.2522 281.738 55.2558 282.266 55.101C283.892 54.8368 285.473 54.3438 286.962 53.6367C288.502 52.9298 289.991 52.1976 291.481 51.4654C292.073 51.1804 292.68 50.9276 293.299 50.708C294.258 50.3293 295.167 49.9253 296.101 49.4709C296.661 49.2122 297.193 48.8993 297.692 48.5367H297.868C298.323 48.5367 298.777 48.2843 299.181 48.1328C300.116 47.6026 301.075 47.0976 302.009 46.6179C303.003 46.1258 304.023 45.6875 305.064 45.3051L307.841 44.2952L310.618 43.2853C309.031 45.838 307.807 48.5998 306.983 51.4907C306.717 51.997 306.579 52.5601 306.579 53.1317C306.579 53.7034 306.717 54.2665 306.983 54.7728C307.259 55.0986 307.598 55.3651 307.98 55.556C308.362 55.747 308.778 55.8584 309.205 55.8837C310.236 55.985 311.278 55.8645 312.259 55.5302C313.219 55.2528 314.137 54.845 314.986 54.3184C315.92 53.7882 316.905 53.1822 317.864 52.551C318.852 51.9218 319.804 51.2392 320.717 50.506C321.619 51.277 322.763 51.706 323.949 51.7179C325.322 51.8437 326.705 51.7928 328.064 51.5664C329.428 51.3139 330.816 51.0362 332.154 50.708L333.72 50.405C334.376 50.2535 335.007 50.0768 335.664 49.8748C336.29 49.6749 336.898 49.4215 337.481 49.1174C337.713 48.9951 337.933 48.8514 338.138 48.6882C338.395 48.6631 338.64 48.567 338.845 48.4105C339.263 48.1255 339.702 47.8723 340.158 47.6531L342.026 46.4917C342.734 46.0603 343.467 45.6724 344.222 45.3303C344.095 45.8273 344.095 46.3482 344.222 46.8452C344.222 47.4006 344.424 47.9308 344.576 48.461C344.922 49.8352 345.618 51.0964 346.596 52.1218C347.511 53.0387 348.59 53.7753 349.777 54.2931C351.005 54.808 352.311 55.1152 353.64 55.202C355.017 55.3077 356.401 55.2228 357.755 54.9495C360.881 54.1115 363.957 53.1 366.97 51.9199L372.02 49.6729C372.499 49.4709 373.03 49.2689 373.661 49.0669C374.252 48.8827 374.756 48.4873 375.075 47.956C375.504 47.2239 375.453 46.7947 374.948 46.517ZM349.045 41.4675C349.652 40.834 350.36 40.3051 351.14 39.9022C351.928 39.4866 352.782 39.2131 353.665 39.0943C354.602 38.9708 355.554 39.0747 356.442 39.3972C355.281 40.5646 353.933 41.529 352.453 42.2502C350.978 42.9704 349.371 43.3827 347.732 43.462C348.048 42.7323 348.493 42.0653 349.045 41.4928V41.4675ZM232.175 31.3686C233.412 30.0207 234.457 28.5084 235.281 26.8746C236.063 25.3054 236.477 23.5785 236.492 21.8252C236.528 20.0196 236.093 18.2359 235.23 16.6495C234.395 15.1893 233.248 13.9308 231.872 12.9634C230.475 11.9625 228.934 11.1793 227.302 10.6406C225.601 10.1208 223.849 9.78227 222.076 9.63073C219.934 9.45356 217.781 9.45356 215.638 9.63073C213.478 9.83423 211.329 10.146 209.2 10.5649C211.071 8.74549 213.108 7.10564 215.285 5.66692C217.281 4.29801 219.657 3.59142 222.076 3.64714C222.43 3.65066 222.777 3.54624 223.07 3.34778C223.363 3.14932 223.589 2.86625 223.717 2.53626C223.895 2.23028 223.962 1.87251 223.907 1.52307C223.851 1.17364 223.678 0.853853 223.414 0.61747C223.191 0.395342 222.921 0.225714 222.624 0.120905C222.327 0.0160951 222.011 -0.0212654 221.698 0.0115363C220.906 0.0166393 220.121 0.153149 219.375 0.415492C218.567 0.689197 217.781 1.0269 217.027 1.42538L215.31 2.33428C213.806 3.26433 212.372 4.30219 211.018 5.43969C209.64 6.55197 208.333 7.74934 207.105 9.0248L204.782 11.6758C203.823 11.8777 202.863 12.105 201.879 12.3827C200.904 12.6359 199.943 12.9393 199 13.2916C195.365 14.4277 191.729 15.8163 188.119 17.1797C184.567 18.6206 181.181 20.4406 178.02 22.6078C177.712 22.7749 177.466 23.0377 177.321 23.3564C177.175 23.6752 177.137 24.0328 177.212 24.3751C177.27 24.6757 177.401 24.9574 177.594 25.1955C177.786 25.4335 178.034 25.6207 178.316 25.7403C178.598 25.86 178.905 25.9087 179.21 25.8819C179.514 25.8552 179.808 25.7539 180.065 25.587C180.613 25.2746 181.137 24.92 181.63 24.5266C182.135 24.1227 182.615 23.6934 183.095 23.2642C183.495 22.9081 183.926 22.5871 184.382 22.3048C188.713 19.6728 193.34 17.5626 198.167 16.0183C198.844 15.745 199.535 15.5091 200.237 15.3114C200.952 15.1045 201.676 14.9359 202.409 14.8064C200.667 16.9019 199 19.0227 197.359 21.194C195.718 23.3652 194.304 25.5112 192.815 27.7835C190.517 31.2171 188.321 34.676 186.175 38.1601L179.762 48.6377L177.515 52.1976C175.899 52.3996 174.233 52.551 172.465 52.652C170.784 52.7427 169.098 52.7427 167.416 52.652C167.11 52.6381 166.806 52.7028 166.532 52.8398C166.258 52.9768 166.024 53.1816 165.852 53.4348C165.68 53.6879 165.576 53.9809 165.549 54.2858C165.522 54.5908 165.574 54.8975 165.699 55.1768C165.792 55.5277 166.004 55.8354 166.299 56.0472C166.594 56.2591 166.953 56.3619 167.315 56.3381C168.039 56.3381 168.746 56.2876 169.436 56.1866L172.39 55.8332C173.4 55.7322 174.41 55.5807 175.419 55.3787C174.056 57.55 172.718 59.6708 171.355 61.7663C169.991 63.8618 168.83 65.9826 167.618 68.1538C167.503 68.4582 167.468 68.787 167.517 69.1086C167.566 69.4303 167.697 69.7338 167.898 69.9901C168.098 70.2464 168.361 70.4466 168.662 70.5717C168.962 70.6967 169.289 70.7422 169.613 70.7038C170.012 70.6411 170.386 70.472 170.697 70.2143C171.008 69.9566 171.244 69.6199 171.38 69.2395C171.688 68.5227 172.051 67.8306 172.465 67.1692L178.02 56.7168L179.131 54.798L180.974 54.3941C188.55 53.0302 196.005 51.0631 203.267 48.5115C210.513 46.0186 217.418 42.6257 223.818 38.4126C225.182 37.5289 226.596 36.4938 228.085 35.3324C229.556 34.1636 230.924 32.8713 232.175 31.4696V31.3686ZM223.566 34.979C222.253 35.9889 221.041 36.822 220.082 37.5037C215.773 40.4698 211.15 42.9507 206.297 44.9011C201.453 46.8427 196.475 48.4291 191.401 49.6476C187.873 50.5904 184.29 51.3072 180.671 51.7936L185.468 43.5883C187.05 40.8784 188.691 38.1769 190.391 35.4839C192.562 32.1008 194.734 28.7934 196.981 25.587C199.228 22.3806 201.601 19.2752 204.176 16.2203L206.196 13.6955C207.685 13.3512 209.195 13.0983 210.715 12.9381C212.154 12.9634 213.669 12.8119 215.209 12.6352C217.661 12.4947 220.12 12.5792 222.556 12.8876C224.975 13.1695 227.288 14.036 229.297 15.4124C230.764 16.2929 231.9 17.6329 232.529 19.2247C233.011 20.5706 233.081 22.0297 232.731 23.4157C232.338 24.9547 231.652 26.4034 230.711 27.6825C229.68 29.0989 228.541 30.4327 227.302 31.6716C226.136 32.8919 224.888 34.0307 223.566 35.08V34.979Z" fill="white"/>
<path d="M159.361 110.569H162.971C163.319 110.541 163.67 110.586 164 110.7C164.33 110.814 164.632 110.996 164.889 111.233C165.145 111.47 165.349 111.758 165.488 112.079C165.628 112.399 165.699 112.745 165.698 113.094C165.704 113.486 165.578 113.869 165.34 114.18C165.102 114.492 164.765 114.714 164.385 114.811C164.929 114.891 165.424 115.171 165.774 115.595C166.123 116.02 166.303 116.559 166.279 117.108C166.284 117.509 166.205 117.907 166.046 118.276C165.887 118.645 165.652 118.976 165.357 119.247C165.061 119.519 164.712 119.725 164.331 119.852C163.951 119.98 163.547 120.025 163.148 119.986H159.361V110.569ZM162.769 114.003C163.375 114.003 163.804 113.675 163.804 113.144C163.813 113.022 163.794 112.899 163.749 112.784C163.705 112.67 163.635 112.567 163.546 112.482C163.456 112.398 163.35 112.334 163.233 112.296C163.116 112.257 162.992 112.246 162.87 112.261H161.28V114.003H162.769ZM163.047 118.219C163.219 118.23 163.391 118.204 163.553 118.144C163.714 118.083 163.86 117.988 163.982 117.867C164.104 117.745 164.199 117.598 164.259 117.437C164.32 117.276 164.346 117.103 164.335 116.931C164.343 116.751 164.313 116.571 164.244 116.404C164.176 116.237 164.072 116.087 163.94 115.964C163.808 115.842 163.65 115.749 163.479 115.694C163.307 115.639 163.125 115.622 162.946 115.644H161.28V118.169L163.047 118.219Z" fill="white"/>
<path d="M171.759 110.569H177.92V112.261H173.779V115.215H177.516V116.856H173.779V118.219H178.223V119.886H171.759V110.569Z" fill="white"/>
<path d="M184.13 110.569H186.048V118.144H190.265V119.81H184.13V110.569Z" fill="white"/>
<path d="M195.945 110.569H202.054V112.261H197.863V115.215H201.6V116.856H197.863V118.219H202.307V119.886H195.945V110.569Z" fill="white"/>
<path d="M210.817 113.902L213.342 110.569H215.539L212.408 114.786L215.917 119.835H213.595L211.07 116.174L210.161 117.26V119.785H208.242V110.569H210.161V113.801C210.161 114.255 210.161 114.887 210.161 115.366C210.326 114.856 210.546 114.365 210.817 113.902Z" fill="white"/>
</svg>
